<svg id="LogoOscuro" xmlns="http://www.w3.org/2000/svg" xmlns:xlink="http://www.w3.org/1999/xlink" width="221" height="60.759" viewBox="0 0 221 60.759">
  <defs>
    <clipPath id="clip-path">
      <rect id="Rectángulo_98" data-name="Rectángulo 98" width="221" height="60.759" fill="none"/>
    </clipPath>
    <clipPath id="clip-path-3">
      <rect id="Rectángulo_96" data-name="Rectángulo 96" width="40.023" height="17.117" fill="none"/>
    </clipPath>
    <clipPath id="clip-path-4">
      <rect id="Rectángulo_95" data-name="Rectángulo 95" width="40.023" height="17.116" fill="none"/>
    </clipPath>
  </defs>
  <g id="Grupo_142" data-name="Grupo 142" clip-path="url(#clip-path)">
    <g id="Grupo_141" data-name="Grupo 141" transform="translate(0 0)">
      <g id="Grupo_140" data-name="Grupo 140" clip-path="url(#clip-path)">
        <g id="Favicon">
          <path id="Trazado_73" data-name="Trazado 73" d="M2.927,25.862,36.505,36.784s9.446-2.558,9.446-4.041V17.02c0-2.457-2-4.686-5.109-5.7L7.026.322C3.732-.749,0,.985,0,3.587V22.6C0,24,1.146,25.282,2.927,25.862" transform="translate(0 0)" fill="#0fa1d7"/>
          <g id="Grupo_139" data-name="Grupo 139" transform="translate(5.928 13.439)" opacity="0.12">
            <g id="Grupo_138" data-name="Grupo 138">
              <g id="Grupo_137" data-name="Grupo 137" clip-path="url(#clip-path-3)">
                <g id="Grupo_136" data-name="Grupo 136" transform="translate(0 0)">
                  <g id="Grupo_135" data-name="Grupo 135" clip-path="url(#clip-path-4)">
                    <path id="Trazado_74" data-name="Trazado 74" d="M47.67,20.917l-.123.015c-.008,3.827-36.272,12.884-38.32,13.392l11.4,3.709L49.25,36.4V24.506a5.151,5.151,0,0,0-1.581-3.589" transform="translate(-9.227 -20.917)" fill="#1a223a"/>
                  </g>
                </g>
              </g>
            </g>
          </g>
          <path id="Trazado_75" data-name="Trazado 75" d="M59.757,32.83s7.542-2.284,7.557-6.34V36.944Z" transform="translate(-21.363 -9.47)" fill="#16233d"/>
          <path id="Trazado_76" data-name="Trazado 76" d="M45.952,46.651V39.174c0-2.6-3.732-4.336-7.026-3.265l-36,11.71C1.146,48.2,0,49.476,0,50.884V61.6Z" transform="translate(0 -12.722)" fill="#1a223a"/>
          <path id="Trazado_77" data-name="Trazado 77" d="M0,72.79v5.06c0,2.6,3.732,4.336,7.026,3.265l36-11.71c1.782-.58,2.927-1.857,2.927-3.265v-8.3Z" transform="translate(0 -20.678)" fill="#1a223a"/>
        </g>
        <path id="Trazado_78" data-name="Trazado 78" d="M113.68,53.365a12.455,12.455,0,0,1-7.1,1.9c-7.1,0-11.231-3.632-11.231-10.785V31.467H90.714V24.761h4.638V16.374h8.716v8.387h7.488v6.705h-7.488v12.9c0,2.571,1.4,3.967,3.745,3.967a5.878,5.878,0,0,0,3.52-1.117Z" transform="translate(-32.429 -5.853)" fill="#1a223a"/>
        <path id="Trazado_79" data-name="Trazado 79" d="M166.856,44.2c0,9.443-6.538,15.478-14.976,15.478a11.67,11.67,0,0,1-9.052-3.632V70.074h-8.717v-40.9h8.326v3.464c2.179-2.626,5.42-3.912,9.443-3.912,8.438,0,14.976,6.035,14.976,15.479m-8.829,0c0-5.2-3.3-8.326-7.655-8.326s-7.656,3.13-7.656,8.326,3.3,8.326,7.656,8.326,7.655-3.129,7.655-8.326" transform="translate(-47.944 -10.268)" fill="#1a223a"/>
        <path id="Trazado_80" data-name="Trazado 80" d="M218.932,42.079V59.233h-8.158V55.49c-1.62,2.738-4.749,4.19-9.164,4.19-7.041,0-11.232-3.911-11.232-9.108,0-5.308,3.744-9,12.908-9h6.929c0-3.744-2.235-5.923-6.929-5.923a14.455,14.455,0,0,0-8.661,2.794l-3.129-6.09c3.3-2.347,8.158-3.632,12.963-3.632,9.164,0,14.473,4.246,14.473,13.355m-8.717,7.655V46.661h-5.979c-4.079,0-5.364,1.509-5.364,3.52,0,2.179,1.844,3.631,4.917,3.631,2.905,0,5.42-1.341,6.426-4.079" transform="translate(-68.058 -10.268)" fill="#1a223a"/>
        <path id="Trazado_81" data-name="Trazado 81" d="M274.675,29.171V54.2c0,11.175-6.035,16.316-16.876,16.316-5.7,0-11.231-1.4-14.751-4.135l3.464-6.258a17.971,17.971,0,0,0,10.617,3.408c6.147,0,8.829-2.794,8.829-8.214V54.037c-2.291,2.515-5.588,3.744-9.5,3.744-8.326,0-15.031-5.756-15.031-14.528s6.705-14.528,15.031-14.528c4.191,0,7.656,1.4,9.947,4.3V29.171ZM266.07,43.252c0-4.414-3.3-7.376-7.879-7.376s-7.934,2.962-7.934,7.376,3.353,7.376,7.934,7.376,7.879-2.961,7.879-7.376" transform="translate(-86.308 -10.268)" fill="#1a223a"/>
        <path id="Trazado_82" data-name="Trazado 82" d="M328.076,42.079V59.233h-8.158V55.49c-1.62,2.738-4.749,4.19-9.164,4.19-7.04,0-11.232-3.911-11.232-9.108,0-5.308,3.744-9,12.908-9h6.929c0-3.744-2.235-5.923-6.929-5.923a14.455,14.455,0,0,0-8.661,2.794l-3.129-6.09c3.3-2.347,8.158-3.632,12.963-3.632,9.164,0,14.473,4.246,14.473,13.355m-8.717,7.655V46.661H313.38c-4.079,0-5.364,1.509-5.364,3.52,0,2.179,1.844,3.631,4.917,3.631,2.905,0,5.42-1.341,6.426-4.079" transform="translate(-107.076 -10.268)" fill="#1a223a"/>
      </g>
    </g>
  </g>
</svg>
